<?xml version="1.0" encoding="UTF-8"?>
<svg width="1366px" height="768px" viewBox="0 0 1366 768" version="1.1" xmlns="http://www.w3.org/2000/svg" xmlns:xlink="http://www.w3.org/1999/xlink">
    <!-- Generator: Sketch 46.2 (44496) - http://www.bohemiancoding.com/sketch -->
    <title>500</title>
    <desc>Created with Sketch.</desc>
    <defs></defs>
    <g id="首页" stroke="none" stroke-width="1" fill="none" fill-rule="evenodd">
        <g id="500">
            <rect id="Rectangle" fill="#FFFFFF" x="0" y="0" width="1366" height="768"></rect>
            <g id="Group" transform="translate(498.000000, 149.000000)">
                <g id="Group-5" transform="translate(0.000000, 129.000000)">
                    <path d="M15,-2.75449314e-13 L20,-2.75449314e-13 L20,-2.74447132e-13 C23.3137085,-2.75055857e-13 26,2.6862915 26,6 L26,165 L26,165 C26,168.313708 23.3137085,171 20,171 L15,171 L15,171 C11.6862915,171 9,168.313708 9,165 L9,6 L9,6 C9,2.6862915 11.6862915,-2.69397514e-13 15,-2.7000624e-13 Z" id="Rectangle-6" fill="#E7E6E6"></path>
                    <path d="M230,-2.75449314e-13 L235,-2.75449314e-13 L235,-2.74447132e-13 C238.313708,-2.75055857e-13 241,2.6862915 241,6 L241,165 L241,165 C241,168.313708 238.313708,171 235,171 L230,171 L230,171 C226.686292,171 224,168.313708 224,165 L224,6 L224,6 C224,2.6862915 226.686292,-2.69397514e-13 230,-2.7000624e-13 Z" id="Rectangle-6-Copy" fill="#E7E6E6"></path>
                    <rect id="Rectangle-7" fill="#D8D8D8" x="2" y="164" width="31" height="15" rx="6"></rect>
                    <rect id="Rectangle-7-Copy" fill="#D8D8D8" x="217" y="164" width="31" height="15" rx="6"></rect>
                    <rect id="Rectangle-5" fill="#F1F1F1" x="0" y="11" width="250" height="62" rx="6"></rect>
                    <path d="M50.5,13.5 L11.5,39.5" id="Line" stroke="#979797" stroke-linecap="square"></path>
                    <path d="M241.5,44.5 L203.375,69.8828125" id="Line" stroke="#979797" stroke-linecap="square"></path>
                    <path d="M165.5,13.5 L83.5,71.5" id="Line-Copy-3" stroke="#979797" stroke-linecap="square"></path>
                    <path d="M111.5,11.5 L24.5,72.5" id="Line-Copy" stroke="#979797" stroke-linecap="square"></path>
                    <path d="M221.5,12.5 L141.5,71.5" id="Line-Copy-4" stroke="#979797" stroke-linecap="square"></path>
                    <path d="M80.5,12.5 L11.5,59.5" id="Line" stroke="#979797" stroke-linecap="square"></path>
                    <path d="M195.5,12.5 L113.5,71.5" id="Line-Copy-5" stroke="#979797" stroke-linecap="square"></path>
                    <path d="M138.5,11.5 L58.5,69.5" id="Line-Copy-2" stroke="#979797" stroke-linecap="square"></path>
                    <path d="M235.5,26.5 L173.5,70.5" id="Line-Copy-6" stroke="#979797" stroke-linecap="square"></path>
                </g>
                <g id="Group-4" transform="translate(234.000000, 0.000000)">
                    <rect id="Rectangle-4" fill="#D8D8D8" x="42" y="293" width="55" height="15" rx="6"></rect>
                    <rect id="Rectangle-3" fill="#F1F1F1" x="61" y="126" width="16" height="167"></rect>
                    <circle id="Oval-6" fill="#E7E6E6" cx="68" cy="68" r="68"></circle>
                    <circle id="Oval-6" fill="#F1F1F1" cx="68.5" cy="68.5" r="57.5"></circle>
                    <text id="STOP" font-family="PingFang-SC-Bold, PingFang SC" font-size="36" font-weight="bold" fill-opacity="0.4" fill="#000000">
                        <tspan x="21" y="79">STOP</tspan>
                    </text>
                </g>
                <text id="500" font-family="PingFang-SC-Bold, PingFang SC" font-size="100" font-weight="bold" fill="#B8B8B8">
                    <tspan x="35" y="285">500</tspan>
                </text>
                <text id="Error：系统正在维护，请稍后重试" font-family="PingFang-SC-Bold, PingFang SC" font-size="14" font-weight="bold" fill="#B8B8B8">
                    <tspan x="18" y="334">Error：系统正在维护，请稍后重试</tspan>
                </text>
            </g>
        </g>
    </g>
</svg>